<svg id="Component_26_1" data-name="Component 26 – 1" xmlns="http://www.w3.org/2000/svg" width="17.581" height="18" viewBox="0 0 17.581 18">
  <path id="Shape" d="M8.611,1.841A10.375,10.375,0,0,0,8.448,0H0V3.481H4.828A4.141,4.141,0,0,1,3.038,6.2V8.456h2.9A8.792,8.792,0,0,0,8.611,1.841Z" transform="translate(8.97 7.364)" fill="#4285f4"/>
  <path id="Shape-2" data-name="Shape" d="M8.016,7.29a8.547,8.547,0,0,0,5.937-2.18l-2.9-2.258a5.378,5.378,0,0,1-3.038.859A5.348,5.348,0,0,1,3,0H0V2.332A8.964,8.964,0,0,0,8.016,7.29Z" transform="translate(0.954 10.71)" fill="#34a853"/>
  <path id="Shape-3" data-name="Shape" d="M3.951,5.752a5.337,5.337,0,0,1,0-3.42V0h-3a9.038,9.038,0,0,0,0,8.084l3-2.332Z" transform="translate(0 4.958)" fill="#fbbc05"/>
  <path id="Shape-4" data-name="Shape" d="M8.016,3.58a4.837,4.837,0,0,1,3.429,1.346l2.573-2.581A8.605,8.605,0,0,0,8.016,0,8.964,8.964,0,0,0,0,4.958L3,7.29A5.348,5.348,0,0,1,8.016,3.58Z" transform="translate(0.954)" fill="#ea4335"/>
</svg>
